Inverse Dynamics Generalized Forces
version=1
nRows=12
nColumns=34
inDegrees=no
endheader 
time	pelvis_tilt_moment	pelvis_list_moment	pelvis_rotation_moment	pelvis_tx_force	pelvis_ty_force	pelvis_tz_force	hip_flexion_l_moment	hip_adduction_l_moment	hip_rotation_l_moment	hip_flexion_r_moment	hip_adduction_r_moment	hip_rotation_r_moment	knee_angle_l_moment	knee_angle_r_moment	ankle_angle_l_moment	ankle_angle_r_moment	subtalar_angle_l_moment	subtalar_angle_r_moment	mtp_angle_l_moment	mtp_angle_r_moment	lumbar_extension_moment	lumbar_bending_moment	lumbar_rotation_moment	arm_flex_l_moment	arm_add_l_moment	arm_rot_l_moment	arm_flex_r_moment	arm_add_r_moment	arm_rot_r_moment	elbow_flex_l_moment	elbow_flex_r_moment	pro_sup_l_moment	pro_sup_r_moment	
          3.33000000	          0.00000000	         -0.00000000	         -0.00000000	          0.00000000	          0.00000000	          0.00000000	         48.39274069	         16.63218426	        -10.08835036	         31.72410919	        -11.33116808	         -2.93704664	        -21.85692131	         -5.31841256	        -79.99755293	         16.27865748	         -6.49464768	          0.08407274	         15.13728135	         -4.80675741	        -81.40576578	         93.15208573	        -47.78826362	        -39.38991718	         89.32916774	         56.46224933	         53.33943068	        112.80501472	        -13.74206178	        -60.90412258	        -81.52354434	         24.75456254	          4.80418205	
          3.34000000	          0.00000000	         -0.00000000	         -0.00000000	          0.00000000	          0.00000000	          0.00000000	         43.00673711	         21.32498923	        -13.05008890	         22.65164432	         -7.18911406	         -4.76540178	        -17.36041027	         -0.44130881	        -81.14083794	         14.82401511	         -6.87095200	          2.00386647	         14.90098771	         -4.99687408	       -112.00270957	         71.26286533	        -38.41244435	          8.05273899	        105.66466298	         72.50621300	          2.26026939	         88.94748129	         27.97419477	        -82.57235700	        -40.67665263	          3.56761345	          3.00902396	
          3.35000000	          0.00000000	         -0.00000000	         -0.00000000	          0.00000000	          0.00000000	          0.00000000	         -7.46183768	          2.04849353	        -32.30490683	         25.13129478	         -9.12802072	         -1.22172639	          3.65700752	         13.23479721	        -78.20546929	          9.38285405	        -14.33734711	          1.21904074	         14.60289954	         -3.13992391	        -72.18289343	         22.75886053	        -81.96752020	         43.53085793	        116.59217944	         27.20779580	        -36.01356250	         29.62650601	         58.41864915	        -98.13666640	          5.49240081	         -4.00253456	          0.79554372	
          3.36000000	          0.00000000	         -0.00000000	         -0.00000000	          0.00000000	          0.00000000	          0.00000000	        -22.77279745	          2.94119471	        -34.98480973	         45.26194950	          7.29362027	         -1.75977715	         14.08043532	         20.72859372	        -78.09977241	          2.94290670	        -19.88186535	         -2.47873343	         13.90118214	         -0.19315888	        -98.39306265	         17.69167999	        -76.18785332	          5.20237020	        125.23980187	        -18.86456006	        -64.57593516	         15.38460486	         79.83774635	        -35.05283431	        -32.98827257	         -4.13729639	          0.63404395	
          3.37000000	          0.00000000	         -0.00000000	         -0.00000000	          0.00000000	          0.00000000	          0.00000000	        -53.15323467	         14.13807848	        -37.57724308	         34.88755268	          8.21380997	         -0.81105184	         23.29945286	         27.53583861	        -80.26516943	          0.51266172	        -24.08706946	         -3.12293288	         13.58791046	          0.08538172	        -61.61285121	         76.16154126	        -71.66852031	        -34.26453040	         57.02796493	        -53.14006891	        -85.81245883	         49.01800948	         94.40621080	         12.38532463	        -61.53112109	         -0.59597123	          2.14560195	
          3.38000000	          0.00000000	         -0.00000000	         -0.00000000	          0.00000000	          0.00000000	          0.00000000	       -100.76527898	         32.46415416	        -42.82882684	         32.44478652	          1.75447774	         -1.32958423	         30.90971846	         15.09196853	        -80.63089896	         -0.35085539	        -25.02905251	         -3.19661153	         13.22412667	          0.21900811	         14.19224374	        131.78732422	        -89.38312066	        -57.58083248	          5.42777307	        -78.20548002	        -34.97219252	         74.02425814	         30.06005465	         47.76862426	         -7.68083535	          0.33658115	          6.00096906	
          3.39000000	          0.00000000	         -0.00000000	         -0.00000000	          0.00000000	          0.00000000	          0.00000000	       -139.92636778	         65.39895155	        -47.60939182	         21.11238234	          6.50772746	         -1.23991650	         35.16093422	         17.33195710	        -79.84902339	         -0.75460622	        -22.45455685	         -1.32790138	         12.79573521	          0.17615359	         85.21984841	        162.39419266	       -131.70169634	         -6.33532072	        -33.85377453	        -96.08465475	        -33.26289658	         58.80295194	        -14.62803673	         73.40379423	         33.84856641	         -2.22776944	          5.66455655	
          3.40000000	          0.00000000	          0.00000000	         -0.00000000	          0.00000000	          0.00000000	          0.00000000	       -129.19554569	         66.41612598	        -41.10816293	         20.26284343	          1.66077548	         -1.55317169	         27.67313220	          7.51832231	        -79.19416992	          2.09818824	        -16.04746465	         -1.18428944	         12.52329434	         -0.11276903	         85.69247058	        160.34229555	       -119.00879916	         33.22476124	        -51.08080707	        -91.54249365	        -62.73489750	         52.56231994	         28.38735839	         38.23453295	         64.86349754	         -3.39823067	          1.25821102	
          3.41000000	          0.00000000	          0.00000000	         -0.00000000	          0.00000000	          0.00000000	          0.00000000	        -88.62440102	         51.52366467	        -30.80413519	         21.29615759	         12.50109230	         -0.79275341	         21.06922785	          8.41278716	        -82.12151471	          2.58261217	        -11.34991802	         -0.03783933	         13.00176333	         -0.23639533	         42.81778759	        125.64459280	        -73.98677308	         63.16497812	         -1.54615289	        -29.91595030	        -85.16346419	         76.33992650	         59.20985533	         62.48172522	         51.42224608	         -0.22987999	          1.50480239	
          3.42000000	          0.00000000	          0.00000000	         -0.00000000	          0.00000000	          0.00000000	          0.00000000	        -70.51787490	         39.93709796	        -25.00802690	         19.92449006	         14.29247486	         -0.76876242	         20.94108681	          7.80879402	        -87.20816061	          1.86611015	          0.07584885	          0.61400068	         13.82474721	         -0.18389948	         18.86935726	        101.98920679	        -54.92521116	         85.09306538	         -4.49479152	         15.25647537	       -101.94646561	         94.34510650	         82.37154896	         58.10587088	         46.31908113	          2.31319206	         -0.43356248	
          3.43000000	          0.00000000	         -0.00000000	         -0.00000000	          0.00000000	          0.00000000	          0.00000000	        -51.29731038	         33.59533367	        -20.97204643	         24.84583225	         20.62455274	         -0.07052609	         18.01217844	          6.97298537	        -78.36844044	          1.41461891	          2.40552527	          0.84641712	         13.30892732	         -0.10876019	        -18.57863527	         80.36916588	        -51.12742073	        101.06851253	        -21.48815558	        -26.53559465	       -114.43545737	        108.34819183	         71.12615521	         34.16318681	         73.56520069	          0.06665517	         -1.13346486	
          3.44000000	         -0.00000000	         -0.00000000	         -0.00000000	         -0.00000000	          0.00000000	          0.00000000	        -47.02237904	         29.89242573	        -18.74272516	         16.72012334	         17.74562638	         -0.35912849	         16.35786322	          6.38169679	        -64.81858183	          2.44268398	          0.43343466	         -0.04098174	         13.77777854	         -0.18552648	          4.14844860	         58.48710545	        -45.24319118	         38.56689923	          2.37402691	        -57.55598642	       -122.85384326	        119.23991381	         73.60407164	         -6.86284243	         80.77949517	         -2.57548132	          7.26782680	
